<!--?xml version="1.0" encoding="utf-8"?-->
<!-- Generator: Adobe Illustrator 18.1.1, SVG Export Plug-In . SVG Version: 6.00 Build 0)  -->

<svg version="1.1" id="_x32_" xmlns="http://www.w3.org/2000/svg" xmlns:xlink="http://www.w3.org/1999/xlink" x="0px" y="0px" viewBox="0 0 512 512" style="width: 256px; height: 256px; opacity: 1;" xml:space="preserve">
<style type="text/css">
	.st0{fill:#4B4B4B;}
</style>
<g>
	<path class="st0" d="M276.289,21.266C276.289,9.522,266.767,0,255.022,0h-42.585c-11.762,0-21.284,9.522-21.284,21.266v53.769
		h85.135V21.266z" style="fill: rgb(255, 255, 255);"></path>
	<rect x="165.335" y="93.537" class="st0" width="134.93" height="43.281" style="fill: rgb(255, 255, 255);"></rect>
	<path class="st0" d="M300.264,155.319H164.747c-58.268,88.359-65.043,204.904-65.043,310.608c0,21.682,16.261,46.073,35.232,46.073
		h226.314c31.619,0,38.692-24.906,43.362-46.073C427.658,361.579,400.548,228.501,300.264,155.319z M357.647,372.392
		c-0.163,5.674-1.636,11.048-4.174,15.764c-2.547,4.707-6.215,8.844-11.129,11.59c-3.262,1.825-7.137,2.946-11.193,2.936
		c-4.092,0.018-8.266-1.156-12.015-3.289c-3.758-2.131-7.146-5.158-10.208-8.97c-6.08-7.67-11.076-18.473-15.14-33.632
		c-3.894-14.562-5.61-26.659-5.61-36.759c0.009-8.401,1.175-15.457,3.577-21.41c2.385-5.926,6.224-10.85,11.374-13.804
		c3.397-1.979,7.273-2.963,11.013-2.954c4.508,0.008,8.771,1.336,12.502,3.477c3.749,2.151,7.028,5.114,9.783,8.691
		c7.534,9.802,12.684,22.006,16.135,34.942c3.441,12.954,5.131,26.677,5.131,39.614C357.692,369.88,357.673,371.136,357.647,372.392
		z" style="fill: rgb(255, 255, 255);"></path>
</g>
</svg>
